<mxfile host="Electron" agent="Mozilla/5.0 (Windows NT 10.0; Win64; x64) AppleWebKit/537.36 (KHTML, like Gecko) draw.io/24.7.8 Chrome/128.0.6613.36 Electron/32.0.1 Safari/537.36" version="24.7.8">
  <diagram name="Page-1" id="MelVNql8aKSXcR2jZhxL">
    <mxGraphModel dx="1056" dy="704" grid="1" gridSize="10" guides="1" tooltips="1" connect="1" arrows="1" fold="1" page="1" pageScale="1" pageWidth="850" pageHeight="1100" math="0" shadow="0">
      <root>
        <mxCell id="0" />
        <mxCell id="1" parent="0" />
        <mxCell id="Nbln8N_ze1GdXYJx62bu-44" style="edgeStyle=orthogonalEdgeStyle;rounded=0;orthogonalLoop=1;jettySize=auto;html=1;exitX=0.5;exitY=1;exitDx=0;exitDy=0;entryX=0;entryY=0.5;entryDx=0;entryDy=0;" edge="1" parent="1" source="Nbln8N_ze1GdXYJx62bu-2" target="Nbln8N_ze1GdXYJx62bu-43">
          <mxGeometry relative="1" as="geometry">
            <mxPoint x="340" y="120" as="sourcePoint" />
          </mxGeometry>
        </mxCell>
        <mxCell id="Nbln8N_ze1GdXYJx62bu-45" style="edgeStyle=orthogonalEdgeStyle;rounded=0;orthogonalLoop=1;jettySize=auto;html=1;exitX=0.5;exitY=1;exitDx=0;exitDy=0;entryX=0.5;entryY=0;entryDx=0;entryDy=0;" edge="1" parent="1" source="Nbln8N_ze1GdXYJx62bu-2" target="Nbln8N_ze1GdXYJx62bu-10">
          <mxGeometry relative="1" as="geometry" />
        </mxCell>
        <mxCell id="Nbln8N_ze1GdXYJx62bu-2" value="Truncate File&lt;div&gt;#1: Pathes&lt;/div&gt;&lt;div&gt;#2: New Size&lt;/div&gt;" style="shape=hexagon;perimeter=hexagonPerimeter2;whiteSpace=wrap;html=1;fixedSize=1;fontFamily=Courier New;fontSize=14;" vertex="1" parent="1">
          <mxGeometry x="240" width="200" height="80" as="geometry" />
        </mxCell>
        <mxCell id="Nbln8N_ze1GdXYJx62bu-3" style="edgeStyle=orthogonalEdgeStyle;rounded=0;orthogonalLoop=1;jettySize=auto;html=1;exitX=1;exitY=0.5;exitDx=0;exitDy=0;entryX=0;entryY=0.5;entryDx=0;entryDy=0;" edge="1" parent="1" source="Nbln8N_ze1GdXYJx62bu-10" target="Nbln8N_ze1GdXYJx62bu-36">
          <mxGeometry relative="1" as="geometry">
            <mxPoint x="590" y="260" as="targetPoint" />
            <mxPoint x="450" y="230" as="sourcePoint" />
          </mxGeometry>
        </mxCell>
        <mxCell id="Nbln8N_ze1GdXYJx62bu-38" style="edgeStyle=orthogonalEdgeStyle;rounded=0;orthogonalLoop=1;jettySize=auto;html=1;exitX=0.5;exitY=1;exitDx=0;exitDy=0;entryX=1;entryY=0.5;entryDx=0;entryDy=0;" edge="1" parent="1" source="Nbln8N_ze1GdXYJx62bu-10" target="Nbln8N_ze1GdXYJx62bu-37">
          <mxGeometry relative="1" as="geometry" />
        </mxCell>
        <mxCell id="Nbln8N_ze1GdXYJx62bu-40" style="edgeStyle=orthogonalEdgeStyle;rounded=0;orthogonalLoop=1;jettySize=auto;html=1;exitX=0.5;exitY=1;exitDx=0;exitDy=0;entryX=1;entryY=0.5;entryDx=0;entryDy=0;" edge="1" parent="1" source="Nbln8N_ze1GdXYJx62bu-10" target="Nbln8N_ze1GdXYJx62bu-39">
          <mxGeometry relative="1" as="geometry" />
        </mxCell>
        <mxCell id="Nbln8N_ze1GdXYJx62bu-42" style="edgeStyle=orthogonalEdgeStyle;rounded=0;orthogonalLoop=1;jettySize=auto;html=1;exitX=0.5;exitY=1;exitDx=0;exitDy=0;entryX=0.5;entryY=0;entryDx=0;entryDy=0;" edge="1" parent="1" source="Nbln8N_ze1GdXYJx62bu-10" target="Nbln8N_ze1GdXYJx62bu-41">
          <mxGeometry relative="1" as="geometry" />
        </mxCell>
        <mxCell id="Nbln8N_ze1GdXYJx62bu-10" value="&lt;span style=&quot;font-size: 14px;&quot;&gt;Search the &#39;pathes&#39;&lt;/span&gt;" style="rounded=1;whiteSpace=wrap;html=1;fontFamily=Courier New;fontSize=13;" vertex="1" parent="1">
          <mxGeometry x="240" y="190" width="200" height="60" as="geometry" />
        </mxCell>
        <mxCell id="Nbln8N_ze1GdXYJx62bu-12" value="IF the pathes is not found" style="text;html=1;align=center;verticalAlign=middle;whiteSpace=wrap;rounded=0;fontFamily=Courier New;fontSize=14;" vertex="1" parent="1">
          <mxGeometry x="430" y="185" width="170" height="30" as="geometry" />
        </mxCell>
        <mxCell id="Nbln8N_ze1GdXYJx62bu-36" value="&lt;div&gt;&lt;font style=&quot;font-size: 14px;&quot;&gt;Return&lt;/font&gt;&lt;/div&gt;E_FileOrDirectoryNotFound" style="shape=parallelogram;perimeter=parallelogramPerimeter;whiteSpace=wrap;html=1;fixedSize=1;fontFamily=Courier New;fontSize=12;" vertex="1" parent="1">
          <mxGeometry x="590" y="180" width="220" height="80" as="geometry" />
        </mxCell>
        <mxCell id="Nbln8N_ze1GdXYJx62bu-37" value="@1: &#39;Pathes[-1]&#39; directory entry" style="rounded=0;whiteSpace=wrap;html=1;fontFamily=Courier New;fontSize=14;" vertex="1" parent="1">
          <mxGeometry y="260" width="200" height="40" as="geometry" />
        </mxCell>
        <mxCell id="Nbln8N_ze1GdXYJx62bu-39" value="@2: &#39;Pathes[-1]&#39; cluster number" style="rounded=0;whiteSpace=wrap;html=1;fontFamily=Courier New;fontSize=14;" vertex="1" parent="1">
          <mxGeometry y="300" width="200" height="40" as="geometry" />
        </mxCell>
        <mxCell id="Nbln8N_ze1GdXYJx62bu-48" style="edgeStyle=orthogonalEdgeStyle;rounded=0;orthogonalLoop=1;jettySize=auto;html=1;exitX=0.5;exitY=1;exitDx=0;exitDy=0;entryX=0.5;entryY=0;entryDx=0;entryDy=0;" edge="1" parent="1" source="Nbln8N_ze1GdXYJx62bu-41" target="Nbln8N_ze1GdXYJx62bu-47">
          <mxGeometry relative="1" as="geometry" />
        </mxCell>
        <mxCell id="Nbln8N_ze1GdXYJx62bu-41" value="&lt;span style=&quot;font-size: 14px;&quot;&gt;Calculate the clusters&lt;/span&gt;" style="rounded=1;whiteSpace=wrap;html=1;fontFamily=Courier New;fontSize=13;" vertex="1" parent="1">
          <mxGeometry x="240" y="360" width="200" height="60" as="geometry" />
        </mxCell>
        <mxCell id="Nbln8N_ze1GdXYJx62bu-51" style="edgeStyle=orthogonalEdgeStyle;rounded=0;orthogonalLoop=1;jettySize=auto;html=1;exitX=1;exitY=0.5;exitDx=0;exitDy=0;entryX=1;entryY=0.5;entryDx=0;entryDy=0;" edge="1" parent="1" source="Nbln8N_ze1GdXYJx62bu-43" target="Nbln8N_ze1GdXYJx62bu-49">
          <mxGeometry relative="1" as="geometry">
            <Array as="points">
              <mxPoint x="840" y="130" />
              <mxPoint x="840" y="640" />
            </Array>
          </mxGeometry>
        </mxCell>
        <mxCell id="Nbln8N_ze1GdXYJx62bu-43" value="&lt;span style=&quot;font-size: 14px;&quot;&gt;CALL Delete File&lt;/span&gt;" style="rounded=1;whiteSpace=wrap;html=1;fontFamily=Courier New;fontSize=13;" vertex="1" parent="1">
          <mxGeometry x="600" y="100" width="200" height="60" as="geometry" />
        </mxCell>
        <mxCell id="Nbln8N_ze1GdXYJx62bu-46" value="IF &#39;New Size&#39; is zero" style="text;html=1;align=center;verticalAlign=middle;whiteSpace=wrap;rounded=0;fontFamily=Courier New;fontSize=14;" vertex="1" parent="1">
          <mxGeometry x="380" y="105" width="230" height="30" as="geometry" />
        </mxCell>
        <mxCell id="Nbln8N_ze1GdXYJx62bu-50" style="edgeStyle=orthogonalEdgeStyle;rounded=0;orthogonalLoop=1;jettySize=auto;html=1;exitX=0.5;exitY=1;exitDx=0;exitDy=0;entryX=0.5;entryY=0;entryDx=0;entryDy=0;" edge="1" parent="1" source="Nbln8N_ze1GdXYJx62bu-47" target="Nbln8N_ze1GdXYJx62bu-49">
          <mxGeometry relative="1" as="geometry" />
        </mxCell>
        <mxCell id="Nbln8N_ze1GdXYJx62bu-47" value="&lt;span style=&quot;font-size: 14px;&quot;&gt;Mark the new size&lt;/span&gt;&lt;div&gt;&lt;span style=&quot;font-size: 14px;&quot;&gt;Release the clusters&lt;/span&gt;&lt;/div&gt;" style="rounded=1;whiteSpace=wrap;html=1;fontFamily=Courier New;fontSize=13;" vertex="1" parent="1">
          <mxGeometry x="240" y="480" width="200" height="60" as="geometry" />
        </mxCell>
        <mxCell id="Nbln8N_ze1GdXYJx62bu-49" value="&lt;div&gt;&lt;font&gt;Return&lt;/font&gt;&lt;/div&gt;&lt;span&gt;as success&lt;/span&gt;" style="shape=parallelogram;perimeter=parallelogramPerimeter;whiteSpace=wrap;html=1;fixedSize=1;fontFamily=Courier New;fontSize=14;" vertex="1" parent="1">
          <mxGeometry x="230" y="600" width="220" height="80" as="geometry" />
        </mxCell>
      </root>
    </mxGraphModel>
  </diagram>
</mxfile>
